<svg xmlns="http://www.w3.org/2000/svg" viewBox="0 0 64 64">
  <defs>
    <linearGradient id="bg" x1="6" y1="6" x2="58" y2="58" gradientUnits="userSpaceOnUse">
      <stop offset="0" stop-color="#0ea5e9"/>
      <stop offset="1" stop-color="#1d4ed8"/>
    </linearGradient>
  </defs>
  <rect x="4" y="4" width="56" height="56" rx="14" fill="url(#bg)"/>
  <rect x="13" y="14" width="24" height="33" rx="3" fill="#ffffff"/>
  <path d="M28 14v9h9" fill="#bfdbfe"/>
  <path d="M28 14l9 9h-6a3 3 0 0 1-3-3z" fill="#93c5fd"/>
  <rect x="17" y="28" width="16" height="2.4" rx="1.2" fill="#bfdbfe"/>
  <rect x="17" y="33" width="14" height="2.4" rx="1.2" fill="#bfdbfe"/>
  <rect x="17" y="38" width="10" height="2.4" rx="1.2" fill="#bfdbfe"/>
  <path d="M46 18l9 3.8v9.6c0 10-6.2 17.2-9 19.3-2.8-2.1-9-9.3-9-19.3v-9.6L46 18z" fill="#22c55e"/>
  <path d="M41.8 33.7l2.4-2.4 2.8 2.8 5.2-5.2 2.4 2.4-7.6 7.6-5.2-5.2z" fill="#ffffff"/>
</svg>
